<svg xmlns="http://www.w3.org/2000/svg" width="32" height="32" fill="none"><path fill="#fff" d="M27 7v7c0 12-11 15-11 15S5 26 5 14V7a1 1 0 0 1 1-1h20a1 1 0 0 1 1 1z" opacity=".2"/><path fill="#fff" d="M26 5H6a2 2 0 0 0-2 2v7c0 6.59 3.19 10.584 5.866 12.774 2.883 2.357 5.75 3.159 5.875 3.191a1 1 0 0 0 .525 0c.125-.032 2.989-.834 5.875-3.191C24.81 24.584 28 20.59 28 14V7a2 2 0 0 0-2-2zm0 9c0 4.634-1.707 8.395-5.075 11.177A16.164 16.164 0 0 1 16 27.953a16.028 16.028 0 0 1-4.865-2.727C7.728 22.44 6 18.663 6 14V7h20v7z"/></svg>